<svg id="visual" viewBox="0 0 2048 2048" width="2048" height="2048" xmlns="http://www.w3.org/2000/svg" xmlns:xlink="http://www.w3.org/1999/xlink" version="1.1"><rect width="2048" height="2048" fill="#001829"></rect><g><g transform="translate(1600 366)"><path d="M0 -54.2L46.9 -27.1L46.9 27.1L0 54.2L-46.9 27.1L-46.9 -27.1Z" fill="#f79c0f"></path></g><g transform="translate(917 297)"><path d="M0 -23L19.9 -11.5L19.9 11.5L0 23L-19.9 11.5L-19.9 -11.5Z" fill="#f79c0f"></path></g><g transform="translate(1677 1746)"><path d="M0 -41L35.5 -20.5L35.5 20.5L0 41L-35.5 20.5L-35.5 -20.5Z" fill="#f79c0f"></path></g><g transform="translate(1693 918)"><path d="M0 -16L13.9 -8L13.9 8L0 16L-13.9 8L-13.9 -8Z" fill="#f79c0f"></path></g><g transform="translate(1082 858)"><path d="M0 -44L38.1 -22L38.1 22L0 44L-38.1 22L-38.1 -22Z" fill="#f79c0f"></path></g><g transform="translate(1056 1698)"><path d="M0 -37L32 -18.5L32 18.5L0 37L-32 18.5L-32 -18.5Z" fill="#f79c0f"></path></g><g transform="translate(150 1118)"><path d="M0 -29L25.1 -14.5L25.1 14.5L0 29L-25.1 14.5L-25.1 -14.5Z" fill="#f79c0f"></path></g><g transform="translate(1518 1477)"><path d="M0 -46L39.8 -23L39.8 23L0 46L-39.8 23L-39.8 -23Z" fill="#f79c0f"></path></g><g transform="translate(605 510)"><path d="M0 -52L45 -26L45 26L0 52L-45 26L-45 -26Z" fill="#f79c0f"></path></g><g transform="translate(163 744)"><path d="M0 -21L18.2 -10.5L18.2 10.5L0 21L-18.2 10.5L-18.2 -10.5Z" fill="#f79c0f"></path></g><g transform="translate(1265 976)"><path d="M0 -23L19.9 -11.5L19.9 11.5L0 23L-19.9 11.5L-19.9 -11.5Z" fill="#f79c0f"></path></g><g transform="translate(1969 2041)"><path d="M0 -23L19.9 -11.5L19.9 11.5L0 23L-19.9 11.5L-19.9 -11.5Z" fill="#f79c0f"></path></g><g transform="translate(76 850)"><path d="M0 -38L32.9 -19L32.9 19L0 38L-32.9 19L-32.9 -19Z" fill="#f79c0f"></path></g><g transform="translate(1141 5)"><path d="M0 -49L42.4 -24.5L42.4 24.5L0 49L-42.4 24.5L-42.4 -24.5Z" fill="#f79c0f"></path></g><g transform="translate(321 1137)"><path d="M0 -15L13 -7.5L13 7.5L0 15L-13 7.5L-13 -7.5Z" fill="#f79c0f"></path></g><g transform="translate(1064 373)"><path d="M0 -14L12.1 -7L12.1 7L0 14L-12.1 7L-12.1 -7Z" fill="#f79c0f"></path></g><g transform="translate(1572 50)"><path d="M0 -37L32 -18.5L32 18.5L0 37L-32 18.5L-32 -18.5Z" fill="#f79c0f"></path></g><g transform="translate(137 941)"><path d="M0 -18L15.6 -9L15.6 9L0 18L-15.6 9L-15.6 -9Z" fill="#f79c0f"></path></g><g transform="translate(659 670)"><path d="M0 -34L29.4 -17L29.4 17L0 34L-29.4 17L-29.4 -17Z" fill="#f79c0f"></path></g><g transform="translate(3 34)"><path d="M0 -24L20.8 -12L20.8 12L0 24L-20.8 12L-20.8 -12Z" fill="#f79c0f"></path></g><g transform="translate(481 329)"><path d="M0 -52L45 -26L45 26L0 52L-45 26L-45 -26Z" fill="#f79c0f"></path></g><g transform="translate(174 218)"><path d="M0 -20L17.3 -10L17.3 10L0 20L-17.3 10L-17.3 -10Z" fill="#f79c0f"></path></g><g transform="translate(433 1990)"><path d="M0 -42L36.4 -21L36.4 21L0 42L-36.4 21L-36.4 -21Z" fill="#f79c0f"></path></g><g transform="translate(1767 1891)"><path d="M0 -20L17.3 -10L17.3 10L0 20L-17.3 10L-17.3 -10Z" fill="#f79c0f"></path></g><g transform="translate(1986 1688)"><path d="M0 -43L37.2 -21.5L37.2 21.5L0 43L-37.2 21.5L-37.2 -21.5Z" fill="#f79c0f"></path></g><g transform="translate(563 721)"><path d="M0 -46L39.8 -23L39.8 23L0 46L-39.8 23L-39.8 -23Z" fill="#f79c0f"></path></g><g transform="translate(1566 1808)"><path d="M0 -37L32 -18.5L32 18.5L0 37L-32 18.5L-32 -18.5Z" fill="#f79c0f"></path></g><g transform="translate(1357 1508)"><path d="M0 -24L20.8 -12L20.8 12L0 24L-20.8 12L-20.8 -12Z" fill="#f79c0f"></path></g><g transform="translate(926 1723)"><path d="M0 -37L32 -18.5L32 18.5L0 37L-32 18.5L-32 -18.5Z" fill="#f79c0f"></path></g><g transform="translate(757 777)"><path d="M0 -35L30.3 -17.5L30.3 17.5L0 35L-30.3 17.5L-30.3 -17.5Z" fill="#f79c0f"></path></g><g transform="translate(1975 1821)"><path d="M0 -47L40.7 -23.5L40.7 23.5L0 47L-40.7 23.5L-40.7 -23.5Z" fill="#f79c0f"></path></g><g transform="translate(236 74)"><path d="M0 -34L29.4 -17L29.4 17L0 34L-29.4 17L-29.4 -17Z" fill="#f79c0f"></path></g><g transform="translate(149 350)"><path d="M0 -28L24.2 -14L24.2 14L0 28L-24.2 14L-24.2 -14Z" fill="#f79c0f"></path></g><g transform="translate(19 1752)"><path d="M0 -43L37.2 -21.5L37.2 21.5L0 43L-37.2 21.5L-37.2 -21.5Z" fill="#f79c0f"></path></g><g transform="translate(1987 547)"><path d="M0 -20L17.3 -10L17.3 10L0 20L-17.3 10L-17.3 -10Z" fill="#f79c0f"></path></g><g transform="translate(363 982)"><path d="M0 -31L26.8 -15.5L26.8 15.5L0 31L-26.8 15.5L-26.8 -15.5Z" fill="#f79c0f"></path></g><g transform="translate(1170 508)"><path d="M0 -14L12.1 -7L12.1 7L0 14L-12.1 7L-12.1 -7Z" fill="#f79c0f"></path></g><g transform="translate(212 540)"><path d="M0 -20L17.3 -10L17.3 10L0 20L-17.3 10L-17.3 -10Z" fill="#f79c0f"></path></g><g transform="translate(1866 800)"><path d="M0 -50L43.3 -25L43.3 25L0 50L-43.3 25L-43.3 -25Z" fill="#f79c0f"></path></g><g transform="translate(1455 1972)"><path d="M0 -37L32 -18.5L32 18.5L0 37L-32 18.5L-32 -18.5Z" fill="#f79c0f"></path></g><g transform="translate(1386 129)"><path d="M0 -37L32 -18.5L32 18.5L0 37L-32 18.5L-32 -18.5Z" fill="#f79c0f"></path></g><g transform="translate(1646 1065)"><path d="M0 -21L18.2 -10.5L18.2 10.5L0 21L-18.2 10.5L-18.2 -10.5Z" fill="#f79c0f"></path></g><g transform="translate(31 183)"><path d="M0 -17L14.7 -8.5L14.7 8.5L0 17L-14.7 8.5L-14.7 -8.5Z" fill="#f79c0f"></path></g><g transform="translate(1285 717)"><path d="M0 -38L32.9 -19L32.9 19L0 38L-32.9 19L-32.9 -19Z" fill="#f79c0f"></path></g><g transform="translate(87 1934)"><path d="M0 -39L33.8 -19.5L33.8 19.5L0 39L-33.8 19.5L-33.8 -19.5Z" fill="#f79c0f"></path></g><g transform="translate(1134 1896)"><path d="M0 -33L28.6 -16.5L28.6 16.5L0 33L-28.6 16.5L-28.6 -16.5Z" fill="#f79c0f"></path></g><g transform="translate(1368 1381)"><path d="M0 -46L39.8 -23L39.8 23L0 46L-39.8 23L-39.8 -23Z" fill="#f79c0f"></path></g><g transform="translate(649 1541)"><path d="M0 -53L45.9 -26.5L45.9 26.5L0 53L-45.9 26.5L-45.9 -26.5Z" fill="#f79c0f"></path></g><g transform="translate(1628 636)"><path d="M0 -38L32.9 -19L32.9 19L0 38L-32.9 19L-32.9 -19Z" fill="#f79c0f"></path></g><g transform="translate(8 1631)"><path d="M0 -53L45.9 -26.5L45.9 26.5L0 53L-45.9 26.5L-45.9 -26.5Z" fill="#f79c0f"></path></g><g transform="translate(570 1859)"><path d="M0 -29L25.1 -14.5L25.1 14.5L0 29L-25.1 14.5L-25.1 -14.5Z" fill="#f79c0f"></path></g><g transform="translate(1209 1703)"><path d="M0 -26L22.5 -13L22.5 13L0 26L-22.5 13L-22.5 -13Z" fill="#f79c0f"></path></g><g transform="translate(791 1132)"><path d="M0 -32L27.7 -16L27.7 16L0 32L-27.7 16L-27.7 -16Z" fill="#f79c0f"></path></g><g transform="translate(1108 1403)"><path d="M0 -27L23.4 -13.5L23.4 13.5L0 27L-23.4 13.5L-23.4 -13.5Z" fill="#f79c0f"></path></g><g transform="translate(1860 540)"><path d="M0 -14L12.1 -7L12.1 7L0 14L-12.1 7L-12.1 -7Z" fill="#f79c0f"></path></g><g transform="translate(651 832)"><path d="M0 -38L32.9 -19L32.9 19L0 38L-32.9 19L-32.9 -19Z" fill="#f79c0f"></path></g><g transform="translate(281 1504)"><path d="M0 -31L26.8 -15.5L26.8 15.5L0 31L-26.8 15.5L-26.8 -15.5Z" fill="#f79c0f"></path></g><g transform="translate(532 1434)"><path d="M0 -40L34.6 -20L34.6 20L0 40L-34.6 20L-34.6 -20Z" fill="#f79c0f"></path></g><g transform="translate(1528 279)"><path d="M0 -50L43.3 -25L43.3 25L0 50L-43.3 25L-43.3 -25Z" fill="#f79c0f"></path></g><g transform="translate(1878 178)"><path d="M0 -42L36.4 -21L36.4 21L0 42L-36.4 21L-36.4 -21Z" fill="#f79c0f"></path></g><g transform="translate(874 583)"><path d="M0 -49L42.4 -24.5L42.4 24.5L0 49L-42.4 24.5L-42.4 -24.5Z" fill="#f79c0f"></path></g><g transform="translate(1323 316)"><path d="M0 -44L38.1 -22L38.1 22L0 44L-38.1 22L-38.1 -22Z" fill="#f79c0f"></path></g><g transform="translate(1438 1264)"><path d="M0 -14L12.1 -7L12.1 7L0 14L-12.1 7L-12.1 -7Z" fill="#f79c0f"></path></g><g transform="translate(6 396)"><path d="M0 -26L22.5 -13L22.5 13L0 26L-22.5 13L-22.5 -13Z" fill="#f79c0f"></path></g><g transform="translate(1611 1547)"><path d="M0 -48L41.6 -24L41.6 24L0 48L-41.6 24L-41.6 -24Z" fill="#f79c0f"></path></g><g transform="translate(989 615)"><path d="M0 -19L16.5 -9.5L16.5 9.5L0 19L-16.5 9.5L-16.5 -9.5Z" fill="#f79c0f"></path></g><g transform="translate(1993 1434)"><path d="M0 -45L39 -22.5L39 22.5L0 45L-39 22.5L-39 -22.5Z" fill="#f79c0f"></path></g><g transform="translate(1500 818)"><path d="M0 -22L19.1 -11L19.1 11L0 22L-19.1 11L-19.1 -11Z" fill="#f79c0f"></path></g><g transform="translate(185 1706)"><path d="M0 -27L23.4 -13.5L23.4 13.5L0 27L-23.4 13.5L-23.4 -13.5Z" fill="#f79c0f"></path></g><g transform="translate(1873 1343)"><path d="M0 -29L25.1 -14.5L25.1 14.5L0 29L-25.1 14.5L-25.1 -14.5Z" fill="#f79c0f"></path></g><g transform="translate(1880 316)"><path d="M0 -45L39 -22.5L39 22.5L0 45L-39 22.5L-39 -22.5Z" fill="#f79c0f"></path></g><g transform="translate(288 1855)"><path d="M0 -30L26 -15L26 15L0 30L-26 15L-26 -15Z" fill="#f79c0f"></path></g><g transform="translate(1857 21)"><path d="M0 -53L45.9 -26.5L45.9 26.5L0 53L-45.9 26.5L-45.9 -26.5Z" fill="#f79c0f"></path></g><g transform="translate(1381 508)"><path d="M0 -43L37.2 -21.5L37.2 21.5L0 43L-37.2 21.5L-37.2 -21.5Z" fill="#f79c0f"></path></g><g transform="translate(1209 311)"><path d="M0 -23L19.9 -11.5L19.9 11.5L0 23L-19.9 11.5L-19.9 -11.5Z" fill="#f79c0f"></path></g><g transform="translate(1405 1845)"><path d="M0 -36L31.2 -18L31.2 18L0 36L-31.2 18L-31.2 -18Z" fill="#f79c0f"></path></g><g transform="translate(1826 918)"><path d="M0 -19L16.5 -9.5L16.5 9.5L0 19L-16.5 9.5L-16.5 -9.5Z" fill="#f79c0f"></path></g><g transform="translate(660 973)"><path d="M0 -18L15.6 -9L15.6 9L0 18L-15.6 9L-15.6 -9Z" fill="#f79c0f"></path></g><g transform="translate(1056 1193)"><path d="M0 -26L22.5 -13L22.5 13L0 26L-22.5 13L-22.5 -13Z" fill="#f79c0f"></path></g><g transform="translate(581 1297)"><path d="M0 -43L37.2 -21.5L37.2 21.5L0 43L-37.2 21.5L-37.2 -21.5Z" fill="#f79c0f"></path></g><g transform="translate(1322 1976)"><path d="M0 -45L39 -22.5L39 22.5L0 45L-39 22.5L-39 -22.5Z" fill="#f79c0f"></path></g><g transform="translate(1253 413)"><path d="M0 -44L38.1 -22L38.1 22L0 44L-38.1 22L-38.1 -22Z" fill="#f79c0f"></path></g><g transform="translate(1898 430)"><path d="M0 -36L31.2 -18L31.2 18L0 36L-31.2 18L-31.2 -18Z" fill="#f79c0f"></path></g><g transform="translate(947 1302)"><path d="M0 -39L33.8 -19.5L33.8 19.5L0 39L-33.8 19.5L-33.8 -19.5Z" fill="#f79c0f"></path></g><g transform="translate(1211 840)"><path d="M0 -17L14.7 -8.5L14.7 8.5L0 17L-14.7 8.5L-14.7 -8.5Z" fill="#f79c0f"></path></g><g transform="translate(457 1573)"><path d="M0 -28L24.2 -14L24.2 14L0 28L-24.2 14L-24.2 -14Z" fill="#f79c0f"></path></g><g transform="translate(1935 715)"><path d="M0 -28L24.2 -14L24.2 14L0 28L-24.2 14L-24.2 -14Z" fill="#f79c0f"></path></g><g transform="translate(570 1043)"><path d="M0 -28L24.2 -14L24.2 14L0 28L-24.2 14L-24.2 -14Z" fill="#f79c0f"></path></g><g transform="translate(435 1095)"><path d="M0 -42L36.4 -21L36.4 21L0 42L-36.4 21L-36.4 -21Z" fill="#f79c0f"></path></g><g transform="translate(1275 1863)"><path d="M0 -22L19.1 -11L19.1 11L0 22L-19.1 11L-19.1 -11Z" fill="#f79c0f"></path></g><g transform="translate(1832 1998)"><path d="M0 -13L11.3 -6.5L11.3 6.5L0 13L-11.3 6.5L-11.3 -6.5Z" fill="#f79c0f"></path></g><g transform="translate(1007 1045)"><path d="M0 -24L20.8 -12L20.8 12L0 24L-20.8 12L-20.8 -12Z" fill="#f79c0f"></path></g><g transform="translate(297 1665)"><path d="M0 -45L39 -22.5L39 22.5L0 45L-39 22.5L-39 -22.5Z" fill="#f79c0f"></path></g><g transform="translate(444 87)"><path d="M0 -49L42.4 -24.5L42.4 24.5L0 49L-42.4 24.5L-42.4 -24.5Z" fill="#f79c0f"></path></g><g transform="translate(1811 1067)"><path d="M0 -29L25.1 -14.5L25.1 14.5L0 29L-25.1 14.5L-25.1 -14.5Z" fill="#f79c0f"></path></g><g transform="translate(406 1468)"><path d="M0 -50L43.3 -25L43.3 25L0 50L-43.3 25L-43.3 -25Z" fill="#f79c0f"></path></g><g transform="translate(1420 713)"><path d="M0 -52L45 -26L45 26L0 52L-45 26L-45 -26Z" fill="#f79c0f"></path></g><g transform="translate(348 1322)"><path d="M0 -23L19.9 -11.5L19.9 11.5L0 23L-19.9 11.5L-19.9 -11.5Z" fill="#f79c0f"></path></g><g transform="translate(821 90)"><path d="M0 -40L34.6 -20L34.6 20L0 40L-34.6 20L-34.6 -20Z" fill="#f79c0f"></path></g><g transform="translate(58 1342)"><path d="M0 -22L19.1 -11L19.1 11L0 22L-19.1 11L-19.1 -11Z" fill="#f79c0f"></path></g><g transform="translate(1424 914)"><path d="M0 -22L19.1 -11L19.1 11L0 22L-19.1 11L-19.1 -11Z" fill="#f79c0f"></path></g><g transform="translate(28 1146)"><path d="M0 -27L23.4 -13.5L23.4 13.5L0 27L-23.4 13.5L-23.4 -13.5Z" fill="#f79c0f"></path></g><g transform="translate(826 237)"><path d="M0 -52L45 -26L45 26L0 52L-45 26L-45 -26Z" fill="#f79c0f"></path></g><g transform="translate(684 113)"><path d="M0 -30L26 -15L26 15L0 30L-26 15L-26 -15Z" fill="#f79c0f"></path></g><g transform="translate(1238 1393)"><path d="M0 -22L19.1 -11L19.1 11L0 22L-19.1 11L-19.1 -11Z" fill="#f79c0f"></path></g><g transform="translate(321 219)"><path d="M0 -20L17.3 -10L17.3 10L0 20L-17.3 10L-17.3 -10Z" fill="#f79c0f"></path></g><g transform="translate(1991 1020)"><path d="M0 -42L36.4 -21L36.4 21L0 42L-36.4 21L-36.4 -21Z" fill="#f79c0f"></path></g><g transform="translate(1735 172)"><path d="M0 -29L25.1 -14.5L25.1 14.5L0 29L-25.1 14.5L-25.1 -14.5Z" fill="#f79c0f"></path></g><g transform="translate(1263 1150)"><path d="M0 -13L11.3 -6.5L11.3 6.5L0 13L-11.3 6.5L-11.3 -6.5Z" fill="#f79c0f"></path></g><g transform="translate(645 345)"><path d="M0 -45L39 -22.5L39 22.5L0 45L-39 22.5L-39 -22.5Z" fill="#f79c0f"></path></g><g transform="translate(772 2030)"><path d="M0 -47L40.7 -23.5L40.7 23.5L0 47L-40.7 23.5L-40.7 -23.5Z" fill="#f79c0f"></path></g><g transform="translate(230 1982)"><path d="M0 -23L19.9 -11.5L19.9 11.5L0 23L-19.9 11.5L-19.9 -11.5Z" fill="#f79c0f"></path></g><g transform="translate(1143 1555)"><path d="M0 -13L11.3 -6.5L11.3 6.5L0 13L-11.3 6.5L-11.3 -6.5Z" fill="#f79c0f"></path></g><g transform="translate(699 1365)"><path d="M0 -19L16.5 -9.5L16.5 9.5L0 19L-16.5 9.5L-16.5 -9.5Z" fill="#f79c0f"></path></g><g transform="translate(923 1168)"><path d="M0 -41L35.5 -20.5L35.5 20.5L0 41L-35.5 20.5L-35.5 -20.5Z" fill="#f79c0f"></path></g><g transform="translate(1731 367)"><path d="M0 -32L27.7 -16L27.7 16L0 32L-27.7 16L-27.7 -16Z" fill="#f79c0f"></path></g><g transform="translate(544 1667)"><path d="M0 -25L21.7 -12.5L21.7 12.5L0 25L-21.7 12.5L-21.7 -12.5Z" fill="#f79c0f"></path></g><g transform="translate(1328 23)"><path d="M0 -46L39.8 -23L39.8 23L0 46L-39.8 23L-39.8 -23Z" fill="#f79c0f"></path></g><g transform="translate(647 217)"><path d="M0 -40L34.6 -20L34.6 20L0 40L-34.6 20L-34.6 -20Z" fill="#f79c0f"></path></g><g transform="translate(939 1541)"><path d="M0 -47L40.7 -23.5L40.7 23.5L0 47L-40.7 23.5L-40.7 -23.5Z" fill="#f79c0f"></path></g><g transform="translate(351 592)"><path d="M0 -40L34.6 -20L34.6 20L0 40L-34.6 20L-34.6 -20Z" fill="#f79c0f"></path></g><g transform="translate(83 628)"><path d="M0 -53L45.9 -26.5L45.9 26.5L0 53L-45.9 26.5L-45.9 -26.5Z" fill="#f79c0f"></path></g><g transform="translate(694 1200)"><path d="M0 -31L26.8 -15.5L26.8 15.5L0 31L-26.8 15.5L-26.8 -15.5Z" fill="#f79c0f"></path></g><g transform="translate(842 1375)"><path d="M0 -23L19.9 -11.5L19.9 11.5L0 23L-19.9 11.5L-19.9 -11.5Z" fill="#f79c0f"></path></g><g transform="translate(918 720)"><path d="M0 -27L23.4 -13.5L23.4 13.5L0 27L-23.4 13.5L-23.4 -13.5Z" fill="#f79c0f"></path></g><g transform="translate(1183 1266)"><path d="M0 -16L13.9 -8L13.9 8L0 16L-13.9 8L-13.9 -8Z" fill="#f79c0f"></path></g><g transform="translate(1355 1622)"><path d="M0 -49L42.4 -24.5L42.4 24.5L0 49L-42.4 24.5L-42.4 -24.5Z" fill="#f79c0f"></path></g><g transform="translate(557 22)"><path d="M0 -50L43.3 -25L43.3 25L0 50L-43.3 25L-43.3 -25Z" fill="#f79c0f"></path></g><g transform="translate(185 1350)"><path d="M0 -32L27.7 -16L27.7 16L0 32L-27.7 16L-27.7 -16Z" fill="#f79c0f"></path></g><g transform="translate(1336 848)"><path d="M0 -40L34.6 -20L34.6 20L0 40L-34.6 20L-34.6 -20Z" fill="#f79c0f"></path></g><g transform="translate(1607 1406)"><path d="M0 -32L27.7 -16L27.7 16L0 32L-27.7 16L-27.7 -16Z" fill="#f79c0f"></path></g><g transform="translate(405 414)"><path d="M0 -39L33.8 -19.5L33.8 19.5L0 39L-33.8 19.5L-33.8 -19.5Z" fill="#f79c0f"></path></g><g transform="translate(1528 1103)"><path d="M0 -50L43.3 -25L43.3 25L0 50L-43.3 25L-43.3 -25Z" fill="#f79c0f"></path></g><g transform="translate(1562 2024)"><path d="M0 -20L17.3 -10L17.3 10L0 20L-17.3 10L-17.3 -10Z" fill="#f79c0f"></path></g><g transform="translate(1759 651)"><path d="M0 -17L14.7 -8.5L14.7 8.5L0 17L-14.7 8.5L-14.7 -8.5Z" fill="#f79c0f"></path></g><g transform="translate(779 341)"><path d="M0 -50L43.3 -25L43.3 25L0 50L-43.3 25L-43.3 -25Z" fill="#f79c0f"></path></g><g transform="translate(1819 1246)"><path d="M0 -35L30.3 -17.5L30.3 17.5L0 35L-30.3 17.5L-30.3 -17.5Z" fill="#f79c0f"></path></g><g transform="translate(1995 124)"><path d="M0 -20L17.3 -10L17.3 10L0 20L-17.3 10L-17.3 -10Z" fill="#f79c0f"></path></g><g transform="translate(2044 1222)"><path d="M0 -49L42.4 -24.5L42.4 24.5L0 49L-42.4 24.5L-42.4 -24.5Z" fill="#f79c0f"></path></g><g transform="translate(1712 1612)"><path d="M0 -14L12.1 -7L12.1 7L0 14L-12.1 7L-12.1 -7Z" fill="#f79c0f"></path></g><g transform="translate(1570 163)"><path d="M0 -50L43.3 -25L43.3 25L0 50L-43.3 25L-43.3 -25Z" fill="#f79c0f"></path></g><g transform="translate(987 24)"><path d="M0 -29L25.1 -14.5L25.1 14.5L0 29L-25.1 14.5L-25.1 -14.5Z" fill="#f79c0f"></path></g><g transform="translate(757 896)"><path d="M0 -42L36.4 -21L36.4 21L0 42L-36.4 21L-36.4 -21Z" fill="#f79c0f"></path></g><g transform="translate(22 1018)"><path d="M0 -49L42.4 -24.5L42.4 24.5L0 49L-42.4 24.5L-42.4 -24.5Z" fill="#f79c0f"></path></g><g transform="translate(1704 1235)"><path d="M0 -45L39 -22.5L39 22.5L0 45L-39 22.5L-39 -22.5Z" fill="#f79c0f"></path></g><g transform="translate(302 759)"><path d="M0 -31L26.8 -15.5L26.8 15.5L0 31L-26.8 15.5L-26.8 -15.5Z" fill="#f79c0f"></path></g><g transform="translate(2044 1578)"><path d="M0 -38L32.9 -19L32.9 19L0 38L-32.9 19L-32.9 -19Z" fill="#f79c0f"></path></g><g transform="translate(1129 1055)"><path d="M0 -33L28.6 -16.5L28.6 16.5L0 33L-28.6 16.5L-28.6 -16.5Z" fill="#f79c0f"></path></g><g transform="translate(1512 582)"><path d="M0 -31L26.8 -15.5L26.8 15.5L0 31L-26.8 15.5L-26.8 -15.5Z" fill="#f79c0f"></path></g><g transform="translate(1602 776)"><path d="M0 -43L37.2 -21.5L37.2 21.5L0 43L-37.2 21.5L-37.2 -21.5Z" fill="#f79c0f"></path></g><g transform="translate(1112 2013)"><path d="M0 -17L14.7 -8.5L14.7 8.5L0 17L-14.7 8.5L-14.7 -8.5Z" fill="#f79c0f"></path></g><g transform="translate(450 1833)"><path d="M0 -35L30.3 -17.5L30.3 17.5L0 35L-30.3 17.5L-30.3 -17.5Z" fill="#f79c0f"></path></g><g transform="translate(743 1656)"><path d="M0 -44L38.1 -22L38.1 22L0 44L-38.1 22L-38.1 -22Z" fill="#f79c0f"></path></g><g transform="translate(244 1053)"><path d="M0 -20L17.3 -10L17.3 10L0 20L-17.3 10L-17.3 -10Z" fill="#f79c0f"></path></g><g transform="translate(1294 194)"><path d="M0 -13L11.3 -6.5L11.3 6.5L0 13L-11.3 6.5L-11.3 -6.5Z" fill="#f79c0f"></path></g><g transform="translate(457 810)"><path d="M0 -28L24.2 -14L24.2 14L0 28L-24.2 14L-24.2 -14Z" fill="#f79c0f"></path></g><g transform="translate(887 1956)"><path d="M0 -34L29.4 -17L29.4 17L0 34L-29.4 17L-29.4 -17Z" fill="#f79c0f"></path></g><g transform="translate(562 1160)"><path d="M0 -31L26.8 -15.5L26.8 15.5L0 31L-26.8 15.5L-26.8 -15.5Z" fill="#f79c0f"></path></g><g transform="translate(1555 948)"><path d="M0 -49L42.4 -24.5L42.4 24.5L0 49L-42.4 24.5L-42.4 -24.5Z" fill="#f79c0f"></path></g><g transform="translate(1398 1119)"><path d="M0 -37L32 -18.5L32 18.5L0 37L-32 18.5L-32 -18.5Z" fill="#f79c0f"></path></g><g transform="translate(441 695)"><path d="M0 -14L12.1 -7L12.1 7L0 14L-12.1 7L-12.1 -7Z" fill="#f79c0f"></path></g><g transform="translate(708 1802)"><path d="M0 -46L39.8 -23L39.8 23L0 46L-39.8 23L-39.8 -23Z" fill="#f79c0f"></path></g><g transform="translate(2018 378)"><path d="M0 -17L14.7 -8.5L14.7 8.5L0 17L-14.7 8.5L-14.7 -8.5Z" fill="#f79c0f"></path></g><g transform="translate(603 1999)"><path d="M0 -51L44.2 -25.5L44.2 25.5L0 51L-44.2 25.5L-44.2 -25.5Z" fill="#f79c0f"></path></g><g transform="translate(1979 260)"><path d="M0 -20L17.3 -10L17.3 10L0 20L-17.3 10L-17.3 -10Z" fill="#f79c0f"></path></g><g transform="translate(1032 123)"><path d="M0 -51L44.2 -25.5L44.2 25.5L0 51L-44.2 25.5L-44.2 -25.5Z" fill="#f79c0f"></path></g><g transform="translate(1548 1266)"><path d="M0 -28L24.2 -14L24.2 14L0 28L-24.2 14L-24.2 -14Z" fill="#f79c0f"></path></g><g transform="translate(1839 1780)"><path d="M0 -38L32.9 -19L32.9 19L0 38L-32.9 19L-32.9 -19Z" fill="#f79c0f"></path></g><g transform="translate(1045 265)"><path d="M0 -49L42.4 -24.5L42.4 24.5L0 49L-42.4 24.5L-42.4 -24.5Z" fill="#f79c0f"></path></g><g transform="translate(1470 1713)"><path d="M0 -47L40.7 -23.5L40.7 23.5L0 47L-40.7 23.5L-40.7 -23.5Z" fill="#f79c0f"></path></g><g transform="translate(263 401)"><path d="M0 -26L22.5 -13L22.5 13L0 26L-22.5 13L-22.5 -13Z" fill="#f79c0f"></path></g><g transform="translate(718 520)"><path d="M0 -18L15.6 -9L15.6 9L0 18L-15.6 9L-15.6 -9Z" fill="#f79c0f"></path></g><g transform="translate(992 487)"><path d="M0 -22L19.1 -11L19.1 11L0 22L-19.1 11L-19.1 -11Z" fill="#f79c0f"></path></g><g transform="translate(419 1236)"><path d="M0 -27L23.4 -13.5L23.4 13.5L0 27L-23.4 13.5L-23.4 -13.5Z" fill="#f79c0f"></path></g><g transform="translate(1060 711)"><path d="M0 -19L16.5 -9.5L16.5 9.5L0 19L-16.5 9.5L-16.5 -9.5Z" fill="#f79c0f"></path></g><g transform="translate(1177 161)"><path d="M0 -36L31.2 -18L31.2 18L0 36L-31.2 18L-31.2 -18Z" fill="#f79c0f"></path></g><g transform="translate(1986 837)"><path d="M0 -22L19.1 -11L19.1 11L0 22L-19.1 11L-19.1 -11Z" fill="#f79c0f"></path></g><g transform="translate(1735 1440)"><path d="M0 -41L35.5 -20.5L35.5 20.5L0 41L-35.5 20.5L-35.5 -20.5Z" fill="#f79c0f"></path></g><g transform="translate(201 1580)"><path d="M0 -20L17.3 -10L17.3 10L0 20L-17.3 10L-17.3 -10Z" fill="#f79c0f"></path></g><g transform="translate(908 1831)"><path d="M0 -40L34.6 -20L34.6 20L0 40L-34.6 20L-34.6 -20Z" fill="#f79c0f"></path></g><g transform="translate(1876 1572)"><path d="M0 -50L43.3 -25L43.3 25L0 50L-43.3 25L-43.3 -25Z" fill="#f79c0f"></path></g><g transform="translate(1102 603)"><path d="M0 -50L43.3 -25L43.3 25L0 50L-43.3 25L-43.3 -25Z" fill="#f79c0f"></path></g><g transform="translate(1700 496)"><path d="M0 -51L44.2 -25.5L44.2 25.5L0 51L-44.2 25.5L-44.2 -25.5Z" fill="#f79c0f"></path></g><g transform="translate(1223 612)"><path d="M0 -41L35.5 -20.5L35.5 20.5L0 41L-35.5 20.5L-35.5 -20.5Z" fill="#f79c0f"></path></g><g transform="translate(1412 393)"><path d="M0 -32L27.7 -16L27.7 16L0 32L-27.7 16L-27.7 -16Z" fill="#f79c0f"></path></g><g transform="translate(125 31)"><path d="M0 -51L44.2 -25.5L44.2 25.5L0 51L-44.2 25.5L-44.2 -25.5Z" fill="#f79c0f"></path></g><g transform="translate(777 637)"><path d="M0 -29L25.1 -14.5L25.1 14.5L0 29L-25.1 14.5L-25.1 -14.5Z" fill="#f79c0f"></path></g><g transform="translate(925 178)"><path d="M0 -43L37.2 -21.5L37.2 21.5L0 43L-37.2 21.5L-37.2 -21.5Z" fill="#f79c0f"></path></g><g transform="translate(869 850)"><path d="M0 -24L20.8 -12L20.8 12L0 24L-20.8 12L-20.8 -12Z" fill="#f79c0f"></path></g><g transform="translate(852 1618)"><path d="M0 -22L19.1 -11L19.1 11L0 22L-19.1 11L-19.1 -11Z" fill="#f79c0f"></path></g><g transform="translate(883 425)"><path d="M0 -22L19.1 -11L19.1 11L0 22L-19.1 11L-19.1 -11Z" fill="#f79c0f"></path></g><g transform="translate(1927 1147)"><path d="M0 -42L36.4 -21L36.4 21L0 42L-36.4 21L-36.4 -21Z" fill="#f79c0f"></path></g><g transform="translate(838 1491)"><path d="M0 -36L31.2 -18L31.2 18L0 36L-31.2 18L-31.2 -18Z" fill="#f79c0f"></path></g><g transform="translate(1021 1924)"><path d="M0 -13L11.3 -6.5L11.3 6.5L0 13L-11.3 6.5L-11.3 -6.5Z" fill="#f79c0f"></path></g><g transform="translate(887 959)"><path d="M0 -28L24.2 -14L24.2 14L0 28L-24.2 14L-24.2 -14Z" fill="#f79c0f"></path></g><g transform="translate(260 946)"><path d="M0 -23L19.9 -11.5L19.9 11.5L0 23L-19.9 11.5L-19.9 -11.5Z" fill="#f79c0f"></path></g><g transform="translate(997 935)"><path d="M0 -32L27.7 -16L27.7 16L0 32L-27.7 16L-27.7 -16Z" fill="#f79c0f"></path></g><g transform="translate(263 1231)"><path d="M0 -51L44.2 -25.5L44.2 25.5L0 51L-44.2 25.5L-44.2 -25.5Z" fill="#f79c0f"></path></g><g transform="translate(1017 1814)"><path d="M0 -37L32 -18.5L32 18.5L0 37L-32 18.5L-32 -18.5Z" fill="#f79c0f"></path></g><g transform="translate(1714 763)"><path d="M0 -18L15.6 -9L15.6 9L0 18L-15.6 9L-15.6 -9Z" fill="#f79c0f"></path></g><g transform="translate(1332 1758)"><path d="M0 -52L45 -26L45 26L0 52L-45 26L-45 -26Z" fill="#f79c0f"></path></g><g transform="translate(37 1464)"><path d="M0 -32L27.7 -16L27.7 16L0 32L-27.7 16L-27.7 -16Z" fill="#f79c0f"></path></g><g transform="translate(528 219)"><path d="M0 -19L16.5 -9.5L16.5 9.5L0 19L-16.5 9.5L-16.5 -9.5Z" fill="#f79c0f"></path></g><g transform="translate(2043 722)"><path d="M0 -39L33.8 -19.5L33.8 19.5L0 39L-33.8 19.5L-33.8 -19.5Z" fill="#f79c0f"></path></g><g transform="translate(163 1821)"><path d="M0 -14L12.1 -7L12.1 7L0 14L-12.1 7L-12.1 -7Z" fill="#f79c0f"></path></g><g transform="translate(698 1914)"><path d="M0 -44L38.1 -22L38.1 22L0 44L-38.1 22L-38.1 -22Z" fill="#f79c0f"></path></g><g transform="translate(1977 6)"><path d="M0 -23L19.9 -11.5L19.9 11.5L0 23L-19.9 11.5L-19.9 -11.5Z" fill="#f79c0f"></path></g><g transform="translate(459 516)"><path d="M0 -19L16.5 -9.5L16.5 9.5L0 19L-16.5 9.5L-16.5 -9.5Z" fill="#f79c0f"></path></g><g transform="translate(474 926)"><path d="M0 -21L18.2 -10.5L18.2 10.5L0 21L-18.2 10.5L-18.2 -10.5Z" fill="#f79c0f"></path></g><g transform="translate(523 615)"><path d="M0 -30L26 -15L26 15L0 30L-26 15L-26 -15Z" fill="#f79c0f"></path></g><g transform="translate(250 661)"><path d="M0 -50L43.3 -25L43.3 25L0 50L-43.3 25L-43.3 -25Z" fill="#f79c0f"></path></g><g transform="translate(1684 73)"><path d="M0 -13L11.3 -6.5L11.3 6.5L0 13L-11.3 6.5L-11.3 -6.5Z" fill="#f79c0f"></path></g><g transform="translate(1460 1585)"><path d="M0 -22L19.1 -11L19.1 11L0 22L-19.1 11L-19.1 -11Z" fill="#f79c0f"></path></g><g transform="translate(1672 1994)"><path d="M0 -50L43.3 -25L43.3 25L0 50L-43.3 25L-43.3 -25Z" fill="#f79c0f"></path></g><g transform="translate(37 740)"><path d="M0 -48L41.6 -24L41.6 24L0 48L-41.6 24L-41.6 -24Z" fill="#f79c0f"></path></g><g transform="translate(1221 2037)"><path d="M0 -20L17.3 -10L17.3 10L0 20L-17.3 10L-17.3 -10Z" fill="#f79c0f"></path></g><g transform="translate(994 1415)"><path d="M0 -45L39 -22.5L39 22.5L0 45L-39 22.5L-39 -22.5Z" fill="#f79c0f"></path></g><g transform="translate(825 1255)"><path d="M0 -48L41.6 -24L41.6 24L0 48L-41.6 24L-41.6 -24Z" fill="#f79c0f"></path></g><g transform="translate(9 543)"><path d="M0 -44L38.1 -22L38.1 22L0 44L-38.1 22L-38.1 -22Z" fill="#f79c0f"></path></g><g transform="translate(399 1738)"><path d="M0 -25L21.7 -12.5L21.7 12.5L0 25L-21.7 12.5L-21.7 -12.5Z" fill="#f79c0f"></path></g><g transform="translate(1658 1884)"><path d="M0 -41L35.5 -20.5L35.5 20.5L0 41L-35.5 20.5L-35.5 -20.5Z" fill="#f79c0f"></path></g><g transform="translate(1911 1924)"><path d="M0 -19L16.5 -9.5L16.5 9.5L0 19L-16.5 9.5L-16.5 -9.5Z" fill="#f79c0f"></path></g><g transform="translate(4 2038)"><path d="M0 -22L19.1 -11L19.1 11L0 22L-19.1 11L-19.1 -11Z" fill="#f79c0f"></path></g><g transform="translate(770 1020)"><path d="M0 -25L21.7 -12.5L21.7 12.5L0 25L-21.7 12.5L-21.7 -12.5Z" fill="#f79c0f"></path></g><g transform="translate(1570 483)"><path d="M0 -52L45 -26L45 26L0 52L-45 26L-45 -26Z" fill="#f79c0f"></path></g><g transform="translate(2041 1953)"><path d="M0 -31L26.8 -15.5L26.8 15.5L0 31L-26.8 15.5L-26.8 -15.5Z" fill="#f79c0f"></path></g><g transform="translate(355 4)"><path d="M0 -29L25.1 -14.5L25.1 14.5L0 29L-25.1 14.5L-25.1 -14.5Z" fill="#f79c0f"></path></g><g transform="translate(145 1232)"><path d="M0 -27L23.4 -13.5L23.4 13.5L0 27L-23.4 13.5L-23.4 -13.5Z" fill="#f79c0f"></path></g><g transform="translate(1305 1280)"><path d="M0 -14L12.1 -7L12.1 7L0 14L-12.1 7L-12.1 -7Z" fill="#f79c0f"></path></g><g transform="translate(811 1755)"><path d="M0 -49L42.4 -24.5L42.4 24.5L0 49L-42.4 24.5L-42.4 -24.5Z" fill="#f79c0f"></path></g><g transform="translate(133 2035)"><path d="M0 -18L15.6 -9L15.6 9L0 18L-15.6 9L-15.6 -9Z" fill="#f79c0f"></path></g><g transform="translate(356 872)"><path d="M0 -33L28.6 -16.5L28.6 16.5L0 33L-28.6 16.5L-28.6 -16.5Z" fill="#f79c0f"></path></g><g transform="translate(802 1867)"><path d="M0 -44L38.1 -22L38.1 22L0 44L-38.1 22L-38.1 -22Z" fill="#f79c0f"></path></g><g transform="translate(103 467)"><path d="M0 -40L34.6 -20L34.6 20L0 40L-34.6 20L-34.6 -20Z" fill="#f79c0f"></path></g><g transform="translate(1642 255)"><path d="M0 -41L35.5 -20.5L35.5 20.5L0 41L-35.5 20.5L-35.5 -20.5Z" fill="#f79c0f"></path></g><g transform="translate(1460 29)"><path d="M0 -13L11.3 -6.5L11.3 6.5L0 13L-11.3 6.5L-11.3 -6.5Z" fill="#f79c0f"></path></g><g transform="translate(963 2046)"><path d="M0 -16L13.9 -8L13.9 8L0 16L-13.9 8L-13.9 -8Z" fill="#f79c0f"></path></g><g transform="translate(1803 1672)"><path d="M0 -50L43.3 -25L43.3 25L0 50L-43.3 25L-43.3 -25Z" fill="#f79c0f"></path></g><g transform="translate(1885 1453)"><path d="M0 -43L37.2 -21.5L37.2 21.5L0 43L-37.2 21.5L-37.2 -21.5Z" fill="#f79c0f"></path></g><g transform="translate(1993 1322)"><path d="M0 -42L36.4 -21L36.4 21L0 42L-36.4 21L-36.4 -21Z" fill="#f79c0f"></path></g><g transform="translate(456 1339)"><path d="M0 -49L42.4 -24.5L42.4 24.5L0 49L-42.4 24.5L-42.4 -24.5Z" fill="#f79c0f"></path></g><g transform="translate(1426 237)"><path d="M0 -40L34.6 -20L34.6 20L0 40L-34.6 20L-34.6 -20Z" fill="#f79c0f"></path></g><g transform="translate(166 1461)"><path d="M0 -24L20.8 -12L20.8 12L0 24L-20.8 12L-20.8 -12Z" fill="#f79c0f"></path></g><g transform="translate(679 1087)"><path d="M0 -22L19.1 -11L19.1 11L0 22L-19.1 11L-19.1 -11Z" fill="#f79c0f"></path></g><g transform="translate(736 8)"><path d="M0 -41L35.5 -20.5L35.5 20.5L0 41L-35.5 20.5L-35.5 -20.5Z" fill="#f79c0f"></path></g><g transform="translate(1567 1652)"><path d="M0 -32L27.7 -16L27.7 16L0 32L-27.7 16L-27.7 -16Z" fill="#f79c0f"></path></g><g transform="translate(534 424)"><path d="M0 -24L20.8 -12L20.8 12L0 24L-20.8 12L-20.8 -12Z" fill="#f79c0f"></path></g><g transform="translate(647 1708)"><path d="M0 -15L13 -7.5L13 7.5L0 15L-13 7.5L-13 -7.5Z" fill="#f79c0f"></path></g><g transform="translate(1254 1553)"><path d="M0 -24L20.8 -12L20.8 12L0 24L-20.8 12L-20.8 -12Z" fill="#f79c0f"></path></g><g transform="translate(1478 1373)"><path d="M0 -37L32 -18.5L32 18.5L0 37L-32 18.5L-32 -18.5Z" fill="#f79c0f"></path></g></g></svg>